PathFileType	4	(X/Y/Z)	C:/Users/opensim2020/Desktop/walking_exp_matlab/subject02_walking11_straight_01.trc																																																																																																																												
DataRate	CameraRate	NumFrames	NumMarkers	Units	OrigDataRate	OrigDataStartFrame	OrigNumFrames																																																																																																																								
100	100	8	42	mm	100	967	267																																																																																																																								
Frame#	Time	LFHD			RFHD			LBHD			RBHD			C7			T10			CLAV			STRN			RBAK			LSHO			LUPA			LELB			LFRM			LWRA			LWRB			LFIN			RSHO			RUPA			RELB			RFRM			RWRA			RWRB			RFIN			LASI			RASI			LPSI			RPSI			LTHI			LKNE			LTIB			LANK			LHEE			LTOE			RTHI			RKNE			RTIB			RANK			RHEE			RTOE			*39			*40			*41		
		X1	Y1	Z1	X2	Y2	Z2	X3	Y3	Z3	X4	Y4	Z4	X5	Y5	Z5	X6	Y6	Z6	X7	Y7	Z7	X8	Y8	Z8	X9	Y9	Z9	X10	Y10	Z10	X11	Y11	Z11	X12	Y12	Z12	X13	Y13	Z13	X14	Y14	Z14	X15	Y15	Z15	X16	Y16	Z16	X17	Y17	Z17	X18	Y18	Z18	X19	Y19	Z19	X20	Y20	Z20	X21	Y21	Z21	X22	Y22	Z22	X23	Y23	Z23	X24	Y24	Z24	X25	Y25	Z25	X26	Y26	Z26	X27	Y27	Z27	X28	Y28	Z28	X29	Y29	Z29	X30	Y30	Z30	X31	Y31	Z31	X32	Y32	Z32	X33	Y33	Z33	X34	Y34	Z34	X35	Y35	Z35	X36	Y36	Z36	X37	Y37	Z37	X38	Y38	Z38	X39	Y39	Z39	X40	Y40	Z40	X41	Y41	Z41	X42	Y42	Z42
																																																																																																																															
234	2.33	597.39435	1750.91162	1343.76453	612.31696	1731.93347	1485.85803	499.34283	1636.91125	1339.62256	502.48129	1612.16675	1480.96851	478.27127	1514.76819	1397.13904	423.58316	1241.76367	1395.43408	618.31146	1447.55322	1392.70007	666.85492	1272.43408	1398.32959	417.11072	1342.58838	1451.15332	568.21271	1496.93445	1222.16455	614.28107	1308.46167	1128.52197	668.88232	1176.91003	1108.13196	752.29126	1071.58032	1111.56506	857.14789	1001.09418	1168.29163	828.02863	976.17688	1127.26282	882.29633	939.72467	1131.92981	547.59338	1473.66333	1586.89417	505.9939	1282.43103	1663.20557	515.31897	1136.81519	1682.50342	545.3327	1020.93182	1706.17126	599.57117	895.97559	1692.57788	549.88654	891.13232	1719.9762	588.80615	829.9129	1726.82776	652.87018	976.80164	1263.9812	660.96869	973.19006	1521.36389	445.87006	1021.16803	1351.17627	442.70016	1019.88531	1465.20947	552.35565	667.65405	1230.11218	491.32977	472.51758	1266.71265	402.96701	297.61749	1273.52649	370.55502	77.06509	1317.40796	332.64249	52.22725	1369.99402	523.90631	34.19524	1298.81982	643.33405	677.00769	1612.57007	718.98474	481.95901	1588.02673	741.401	299.16669	1613.97424	793.11951	109.10492	1600.46094	781.50153	41.45705	1550.00647	954.64063	101.15263	1612.11694	484.78906	1776.68176	1440.63928	2845.25586	1033.96912	-3360.30859	NaN	NaN	NaN
235	2.34	605.3623	1750.06091	1345.51563	620.33319	1730.96448	1487.66235	507.28036	1636.04639	1341.13586	510.37305	1611.23303	1482.62842	486.09628	1513.91431	1398.6134	431.37787	1240.70422	1396.9353	626.22351	1446.69995	1394.01245	674.80072	1271.57214	1399.20337	425.03894	1341.68726	1452.422	576.07794	1496.29944	1223.50146	622.01538	1307.53308	1130.20227	675.90717	1175.78931	1109.86523	758.77655	1070.07544	1113.09924	864.03693	1000.00513	1169.86829	834.68536	974.93427	1128.97192	888.9823	938.57635	1133.68286	555.39313	1472.56055	1588.45862	513.44037	1281.04431	1664.11414	522.46124	1135.62366	1683.58179	552.14532	1019.75879	1707.49011	605.82727	894.54736	1693.89331	556.08887	889.89948	1721.18848	594.7215	828.45557	1728.06653	659.82117	975.74255	1264.37085	669.63641	972.31262	1521.67285	452.98764	1020.08624	1353.03223	450.95245	1019.17993	1467.28723	557.55115	667.04944	1230.79797	495.6069	472.32825	1267.30249	405.47095	298.26877	1273.94458	370.957	77.94993	1317.40247	332.89392	53.58638	1370.21375	523.47229	34.25304	1298.69165	650.87659	675.74768	1613.08325	726.67017	480.77802	1587.71643	752.34485	298.76517	1614.25806	807.35437	109.5962	1601.07666	795.9776	42.5216	1550.44922	969.15656	103.23231	1610.27808	492.75888	1775.72107	1442.24854	2845.87524	1034.27649	-3357.20361	NaN	NaN	NaN
236	2.35	613.49969	1749.3374	1347.49255	628.37646	1729.98645	1489.57788	515.30322	1635.44775	1343.10132	518.1402	1610.35803	1484.10742	494.0817	1513.02075	1400.17163	439.50052	1239.9939	1398.85938	634.22803	1445.85266	1395.4563	682.82654	1270.7041	1400.17432	432.97928	1340.47852	1453.86987	583.92114	1495.68164	1224.96741	629.22345	1306.57971	1131.77271	682.60352	1174.64551	1111.49829	765.35706	1068.91248	1114.86621	870.31848	998.51251	1171.60571	840.95496	973.36279	1130.78076	895.1629	936.92145	1135.31506	563.29352	1471.24609	1589.83789	521.01709	1279.78748	1665.20081	529.86841	1134.54822	1684.89551	558.92706	1018.52277	1708.75732	612.30902	893.10114	1695.35046	562.48694	888.61188	1722.4375	600.8067	827.03711	1729.32471	666.81879	974.74408	1264.92725	678.43359	971.41772	1522.07959	460.72971	1019.24756	1355.29358	459.28345	1018.41254	1469.49707	562.93628	666.51575	1231.55615	500.04544	472.17786	1267.93274	408.11713	299.06436	1274.4469	371.40689	78.91357	1317.38025	332.98102	54.96395	1370.21045	523.32031	34.21063	1298.35339	659.33905	675.00623	1613.97351	735.05969	480.06744	1588.16455	762.52411	298.31107	1614.62817	819.63855	109.55525	1601.18225	808.1521	41.51235	1551.35986	981.52216	103.99325	1608.6394	500.95828	1774.95239	1444.42834	2845.87573	1034.28845	-3357.33594	NaN	NaN	NaN
237	2.36	621.5672	1748.50232	1349.5282	636.4472	1728.97705	1491.61267	523.28998	1634.71362	1344.99207	526.14191	1609.38342	1486.00879	502.19019	1512.33752	1402.0885	447.57755	1239.10266	1400.82764	642.28461	1444.9823	1396.90527	690.90704	1269.85913	1401.25879	441.00867	1339.56665	1455.52808	591.76581	1495.09021	1226.44031	636.25952	1305.6012	1133.3949	688.9549	1173.30554	1113.29529	771.1004	1066.98267	1116.59485	876.24786	996.60181	1173.18909	846.68982	971.47662	1132.60315	900.69659	934.82391	1137.0105	571.19049	1469.91675	1591.18774	528.70264	1278.57703	1666.34351	537.24432	1133.36072	1686.14355	565.87732	1017.24561	1709.95642	618.90417	891.68054	1696.74548	569.03625	887.40424	1723.72888	607.15588	825.74347	1730.83752	674.06268	973.85101	1265.36182	687.29285	970.54535	1522.61926	468.42871	1018.29492	1357.59241	467.71799	1017.6994	1471.77405	568.42163	665.99561	1232.30945	504.72934	471.98764	1268.526	410.87662	299.90054	1274.89429	371.81879	79.96432	1317.31055	333.32614	56.41216	1370.11255	523.34595	34.19453	1298.1842	668.03821	673.96423	1614.64575	743.7973	479.48795	1588.66626	772.11102	297.6557	1614.91284	829.60712	108.85692	1600.69043	818.51154	41.30441	1549.97681	991.96674	103.83504	1607.60645	509.04028	1773.88489	1446.57935	2845.19849	1034.18347	-3360.29492	NaN	NaN	NaN
238	2.37	629.76788	1747.91589	1351.8269	644.40662	1727.87732	1493.59229	531.33044	1633.9834	1346.98279	534.38745	1608.46399	1488.25818	510.1431	1511.34094	1403.65955	455.74893	1238.22534	1402.92908	650.39044	1444.12878	1398.49744	699.08014	1269.01685	1402.35376	449.19672	1338.69299	1457.32825	599.57385	1494.3938	1228.03528	642.48291	1304.48779	1134.68054	695.15393	1171.92798	1115.2168	776.75793	1065.22693	1118.48669	881.75598	994.41821	1174.90527	851.90796	969.28644	1134.48657	905.69043	932.49182	1138.85327	579.59412	1468.91455	1593.12146	536.42828	1277.35022	1667.60876	544.72375	1132.19556	1687.44519	572.61273	1015.72693	1710.88879	625.64545	890.30304	1698.19226	575.66711	886.09711	1724.94043	613.68506	824.41992	1732.34778	681.26868	972.91394	1266.13184	696.25311	969.65643	1523.30212	476.26755	1017.33051	1360.02332	476.37109	1016.89923	1474.1825	574.12231	665.54102	1233.18591	509.56778	471.86292	1269.17297	413.81543	300.92078	1275.3949	372.3638	81.17854	1317.20654	333.65643	57.77689	1369.90613	523.43781	34.14891	1298.03296	677.76215	673.57599	1615.94153	752.8197	478.56909	1588.98145	780.94012	296.71283	1615.08337	838.07733	107.7999	1600.18774	826.59503	40.22102	1550.00793	1000.39783	102.48249	1606.95984	517.04163	1773.05017	1448.53992	2845.1748	1034.25183	-3360.27661	NaN	NaN	NaN
239	2.38	637.78973	1747.04431	1354.01929	652.52521	1726.87073	1495.80957	539.41943	1633.30078	1349.08887	542.49554	1607.5177	1490.1687	518.32336	1510.46863	1405.57324	464.00308	1237.29053	1405.06665	658.59546	1443.30603	1400.13379	707.32971	1268.19824	1403.57117	457.45047	1337.73401	1459.27283	607.47101	1493.76953	1229.6814	649.88361	1303.41919	1136.79321	701.05188	1170.31921	1117.05286	782.06268	1063.07324	1120.46558	886.76111	991.8811	1176.67334	856.41675	966.73572	1136.16211	910.15472	929.5661	1140.547	587.93536	1467.65613	1594.7345	544.28601	1276.32056	1669.24768	552.33167	1131.03821	1688.83948	580.021	1014.63788	1712.43188	632.63281	889.00494	1699.73486	582.52087	884.86993	1726.26001	620.2934	823.16589	1733.91187	688.53589	971.91522	1267.17908	705.39185	968.83191	1524.11401	484.27957	1016.32269	1362.5238	485.11713	1016.15167	1476.66663	579.95862	665.03601	1234.15393	514.56622	471.81018	1269.89038	416.87894	301.94791	1275.83533	372.82629	82.44411	1317.06226	334.21832	59.57199	1369.80359	523.4588	34.0768	1297.86597	687.92456	672.94727	1617.06262	762.216	477.79407	1589.52271	789.09448	295.50607	1615.0304	844.81244	106.50389	1599.6676	832.50385	39.00046	1548.54431	1006.95129	99.74947	1606.14148	525.24561	1772.24475	1451.04785	2845.17236	1034.19531	-3360.38208	NaN	NaN	NaN
240	2.39	645.71088	1746.41162	1356.42651	660.79517	1725.92273	1498.2771	547.44641	1632.40845	1351.05884	550.46698	1606.375	1492.28784	526.60931	1509.7644	1407.80469	472.45474	1236.32959	1407.33606	666.77496	1442.42493	1401.75305	715.65247	1267.4248	1404.93958	465.78845	1336.90576	1461.27649	615.3537	1493.14648	1231.44543	656.5979	1302.21899	1138.75854	706.70355	1168.74768	1119.21997	786.86597	1060.901	1122.50134	891.39746	988.94824	1178.33191	860.91467	963.97015	1138.21716	914.06799	926.39343	1142.3031	596.51746	1466.54431	1596.64685	552.29999	1275.29639	1670.802	560.06866	1129.93958	1690.28955	587.4068	1013.5174	1713.83228	639.67792	887.65344	1701.16345	589.53656	883.68054	1727.55225	627.20441	821.88214	1735.35535	696.11481	971.0542	1267.80078	714.70538	968.07092	1525.15955	492.37115	1015.13171	1365.04834	494.04843	1015.35565	1479.24219	586.1051	664.52441	1235.1311	519.76532	471.72849	1270.62732	420.07385	303.13177	1276.36121	373.45233	83.99736	1316.92322	334.54044	61.5037	1369.61279	523.53674	34.02143	1297.67834	698.88257	672.83197	1618.90674	771.55518	477.03482	1590.26697	796.63751	293.99554	1614.90942	849.74811	104.63364	1598.94446	837.57294	36.76063	1548.65454	1011.80328	96.13396	1605.42249	533.25598	1771.14392	1453.31982	2845.27686	1033.90503	-3360.33496	NaN	NaN	NaN
241	2.4	653.87341	1745.5752	1358.87549	668.97107	1724.8855	1500.67542	555.49951	1631.65051	1353.38647	558.71088	1605.19507	1494.39563	534.67523	1508.72827	1409.70569	480.98785	1235.33484	1409.69836	675.03302	1441.58899	1403.52881	724.0799	1266.60339	1406.36243	474.25021	1335.94116	1463.54321	623.2005	1492.40356	1233.2843	662.75098	1300.95044	1140.54907	712.22949	1167.04614	1121.47937	791.0874	1058.37463	1124.99219	895.50775	985.70392	1180.17224	864.70557	960.93274	1140.15466	917.54065	922.84912	1144.09167	604.97083	1465.37793	1598.36426	560.69775	1274.4292	1672.72375	567.98621	1128.85547	1691.80823	594.87769	1012.16431	1715.12048	646.97266	886.40631	1702.66858	596.65186	882.48193	1728.88867	634.21844	820.66797	1736.81262	704.0434	970.25592	1269.10168	724.17889	967.37543	1526.31323	500.82907	1014.11896	1367.81836	503.04044	1014.30994	1481.70532	592.33405	664.02979	1236.30103	525.05396	471.70404	1271.40894	423.30817	304.38712	1276.99719	374.10641	85.51332	1316.76038	335.15112	63.54066	1369.53003	523.60242	34.01562	1297.52808	710.13464	672.46014	1620.45947	780.83459	475.99542	1590.97217	803.37091	292.36914	1614.93542	853.55011	102.42763	1598.21399	838.54102	36.40251	1546.35425	1015.33826	91.74669	1604.70239	541.45911	1770.10107	1456.23865	2845.2583	1034.09741	-3360.19092	NaN	NaN	NaN
